<?xml version="1.0" encoding="UTF-8" standalone="no"?>
<!-- Created with Inkscape (http://www.inkscape.org/) -->

<svg
   version="1.1"
   id="svg1"
   width="1172.043"
   height="1355.7871"
   viewBox="0 0 1172.043 1355.7871"
   xmlns="http://www.w3.org/2000/svg"
   xmlns:svg="http://www.w3.org/2000/svg">
  <defs
     id="defs1" />
  <g
     id="g1"
     transform="translate(-2228.1198,-1988.7732)">
    <g
       id="g17">
      <g
         id="g5">
        <path
           id="path94"
           d="m 3250.0399,3344.56 h -810.9866 c -38.8267,0 -70.3067,-31.48 -70.3067,-70.3066 V 3195.96 h 740.6667 c 38.8266,0 70.3066,-31.48 70.3066,-70.3066 v -594.3334 0 -242.1866 l 138.92,134.7333 h -0.053 l 1.76,1.7067 v 0.08 254.2666 594.3334 c 0,38.8266 -31.48,70.3066 -70.3067,70.3066"
           style="opacity:0.25;fill:#000000;fill-opacity:1;fill-rule:nonzero;stroke:none;stroke-width:0.133333" />
        <path
           id="path95"
           d="m 2882.6133,1988.7734 h -584.1867 c -38.8267,0 -70.3067,31.48 -70.3067,70.3066 v 1066.5734 c 0,38.8266 31.48,70.3066 70.3067,70.3066 h 810.9867 c 38.8266,0 70.3066,-31.48 70.3066,-70.3066 v -848.68 l -297.1066,-288.2"
           style="fill:#312b3f;fill-opacity:1;fill-rule:nonzero;stroke:none;stroke-width:0.133333" />
        <path
           id="path96"
           d="M 2882.6133,1988.7734 V 2204.96 c 0,38.8267 31.48,70.3067 70.3066,70.3067 h 225.0934 l -295.4,-286.4933"
           style="fill:#ffffff;fill-opacity:1;fill-rule:nonzero;stroke:none;stroke-width:0.133333" />
        <path
           id="path97"
           d="m 3179.7199,2531.32 c -116.0533,-116.0666 -270.5733,-270.64 -274.4666,-274.68 0.093,0.08 0.1866,0.1734 0.2933,0.2667 12.1733,11.6267 28.9733,18.3067 47.1333,18.36 h 0.013 c 0.08,0 0.1466,0 0.2266,0 h 225.0134 l 1.7866,1.7867 V 2531.32"
           style="fill:#2c2739;fill-opacity:1;fill-rule:nonzero;stroke:none;stroke-width:0.133333" />
        <path
           id="path98"
           d="m 2952.6933,2275.2667 h -0.013 c 0.013,0 0.013,0 0.013,0 m -47.1467,-18.36 c -0.1067,-0.093 -0.2,-0.1867 -0.2933,-0.2667 -0.053,-0.053 -0.08,-0.08 -0.08,-0.08 0,0 0.04,0.027 0.1066,0.093 0.08,0.08 0.1734,0.16 0.2667,0.2533"
           style="fill:#e5e5e5;fill-opacity:1;fill-rule:nonzero;stroke:none;stroke-width:0.133333" />
        <path
           id="path99"
           d="m 2586.6533,3124.3067 c -22.2534,0 -40.6267,-18.2 -40.6267,-40.4533 0,-22.1467 18.4533,-40.6134 40.6267,-40.6134 22.0533,0 40.6133,18.56 40.6133,40.6134 0,22.16 -18.48,40.4533 -40.6133,40.4533"
           style="opacity:0.25;fill:#000000;fill-opacity:1;fill-rule:nonzero;stroke:none;stroke-width:0.133333" />
        <path
           id="path100"
           d="M 2836.9733,3107.4934 H 2639.4266 L 2739.3333,2921.2 h -96.7467 v -59.6666 h 197.5333 l -99.9066,188.64 h 96.76 v 57.32"
           style="opacity:0.25;fill:#000000;fill-opacity:1;fill-rule:nonzero;stroke:none;stroke-width:0.133333" />
        <path
           id="path101"
           d="m 2861.4799,3107.4934 h 60.1198 v -245.96 h -60.1198 z"
           style="opacity:0.25;fill:#000000;fill-opacity:1;fill-rule:nonzero;stroke:none;stroke-width:0.133333" />
        <path
           id="path102"
           d="m 3012.2399,3107.4934 h -60.12 v -245.96 h 97.04 c 27.6934,0 51.72,8.76 70.1467,25.96 17.9067,17.28 27.0533,38.5066 27.0533,62.92 0,24.5866 -9.1466,45.76 -27.0933,62.6533 -18.8,17.1467 -43.3867,25.92 -71.52,25.92 h -35.5067 v 68.5067 m 2.2267,-186.2934 v 58.16 l 34.7067,0.12 c 17.6666,0 34.84,-12.16 34.84,-29.0666 0,-16.8934 -17.2934,-29.2134 -34.8534,-29.2134 h -34.6933"
           style="opacity:0.25;fill:#000000;fill-opacity:1;fill-rule:nonzero;stroke:none;stroke-width:0.133333" />
        <path
           id="path103"
           d="m 2499.1599,3036.9867 c 0,-22.1467 18.4534,-40.6267 40.6134,-40.6267 22.0533,0 40.6266,18.5734 40.6266,40.6267 0,22.16 -18.48,40.44 -40.6266,40.44 -22.2534,0 -40.6134,-18.1867 -40.6134,-40.44"
           style="fill:#ffffff;fill-opacity:1;fill-rule:nonzero;stroke:none;stroke-width:0.133333" />
        <path
           id="path104"
           d="m 2595.7066,2814.6534 h 197.5467 l -99.9067,188.6533 h 96.7467 v 57.32 h -197.5334 l 99.9067,-186.3067 h -96.76 v -59.6666"
           style="fill:#ffffff;fill-opacity:1;fill-rule:nonzero;stroke:none;stroke-width:0.133333" />
        <path
           id="path105"
           d="m 2814.6133,3060.6267 v -245.9733 h 60.12 v 245.9733 h -60.12"
           style="fill:#ffffff;fill-opacity:1;fill-rule:nonzero;stroke:none;stroke-width:0.133333" />
        <path
           id="path106"
           d="m 3002.2799,2874.32 h -34.6933 v 58.16 l 34.7067,0.12 c 17.6666,0 34.8533,-12.16 34.8533,-29.0666 0,-16.88 -17.2933,-29.2134 -34.8667,-29.2134 z m -97.04,186.3067 v -245.9733 h 97.04 c 27.6934,0 51.72,8.76 70.1467,25.96 17.92,17.28 27.0533,38.52 27.0533,62.92 0,24.5866 -9.1466,45.7733 -27.08,62.6666 -18.8133,17.1467 -43.4,25.92 -71.52,25.92 h -35.52 v 68.5067 h -60.12"
           style="fill:#ffffff;fill-opacity:1;fill-rule:nonzero;stroke:none;stroke-width:0.133333" />
      </g>
      <rect
         style="opacity:0.25;fill:none;fill-opacity:1;fill-rule:evenodd;stroke:#000000;stroke-width:0.48;stroke-linecap:round;stroke-linejoin:round;stroke-miterlimit:10000"
         id="rect9-1-7"
         width="1171.563"
         height="1355.307"
         x="2228.3599"
         y="1989.0132" />
    </g>
  </g>
</svg>
