<?xml version="1.0" encoding="UTF-8" standalone="no"?>
<!-- Created with Inkscape (http://www.inkscape.org/) -->

<svg
   version="1.1"
   id="svg1"
   width="1172.043"
   height="1355.787"
   viewBox="0 0 1172.043 1355.787"
   xmlns="http://www.w3.org/2000/svg"
   xmlns:svg="http://www.w3.org/2000/svg">
  <defs
     id="defs1" />
  <g
     id="g1"
     transform="translate(-3968.9599,-303.69327)">
    <g
       id="g15">
      <g
         id="g12">
        <g
           id="g3">
          <path
             id="path29"
             d="m 4990.8799,1659.4801 h -810.9867 c -38.8266,0 -70.3066,-31.4667 -70.3066,-70.2934 v -78.2933 h 740.6666 c 38.8267,0 70.3067,-31.48 70.3067,-70.3067 v -594.34662 0 -242.18666 l 138.92,134.73333 h -0.053 l 1.76,1.70666 v 0.08 254.26667 594.34662 c 0,38.8267 -31.48,70.2934 -70.3066,70.2934"
             style="opacity:0.25;fill:#000000;fill-opacity:1;fill-rule:nonzero;stroke:none;stroke-width:0.133333" />
          <path
             id="path30"
             d="m 4623.4532,303.69343 h -584.1866 c -38.84,0 -70.3067,31.47999 -70.3067,70.30666 V 1440.5867 c 0,38.8267 31.4667,70.3067 70.3067,70.3067 h 810.9866 c 38.8267,0 70.3067,-31.48 70.3067,-70.3067 V 591.90675 L 4623.4532,303.69343"
             style="fill:#e2824d;fill-opacity:1;fill-rule:nonzero;stroke:none;stroke-width:0.133333" />
          <path
             id="path31"
             d="m 4623.4532,303.69343 v 216.19999 c 0,38.82667 31.48,70.29333 70.3067,70.29333 h 225.0933 l -295.4,-286.49332"
             style="fill:#ffffff;fill-opacity:1;fill-rule:nonzero;stroke:none;stroke-width:0.133333" />
          <path
             id="path32"
             d="m 4920.5599,846.24008 c -116.04,-116.04 -270.5333,-270.58666 -274.4667,-274.67999 0.093,0.0933 0.1867,0.18666 0.2934,0.26666 12.1866,11.62667 28.9733,18.30667 47.1333,18.36 h 0.013 c 0.08,0 0.1467,0 0.2267,0 h 225.0133 l 1.7867,1.8 v 254.25333"
             style="fill:#cb7545;fill-opacity:1;fill-rule:nonzero;stroke:none;stroke-width:0.133333" />
          <path
             id="path33"
             d="m 4693.5332,590.18675 h -0.013 0.013 m -47.1466,-18.36 c -0.1067,-0.08 -0.2,-0.17333 -0.2934,-0.26666 -0.053,-0.0533 -0.08,-0.08 -0.08,-0.08 0,0 0.04,0.04 0.1067,0.0933 0.08,0.0933 0.1733,0.17333 0.2667,0.25333"
             style="fill:#e5e5e5;fill-opacity:1;fill-rule:nonzero;stroke:none;stroke-width:0.133333" />
          <path
             id="path34"
             d="m 4203.4532,1431.6534 c -22.2533,0 -40.6133,-18.2 -40.6133,-40.4533 0,-22.1467 18.4533,-40.6267 40.6133,-40.6267 22.0534,0 40.6267,18.5733 40.6267,40.6267 0,22.16 -18.48,40.4533 -40.6267,40.4533"
             style="opacity:0.25;fill:#000000;fill-opacity:1;fill-rule:nonzero;stroke:none;stroke-width:0.133333" />
          <path
             id="path35"
             d="m 4325.5599,1414.8401 h -60.12 v -245.96 h 97.04 c 27.6933,0 51.7067,8.7466 70.1467,25.9466 17.9066,17.2934 27.0533,38.52 27.0533,62.92 0,24.5867 -9.16,45.7734 -27.0933,62.6667 -18.8134,17.1467 -43.4,25.92 -71.52,25.92 h -35.5067 v 68.5067 m 2.2133,-186.3067 v 58.1733 l 34.7067,0.12 c 17.6667,0 34.8533,-12.1733 34.8533,-29.08 0,-16.88 -17.2933,-29.2133 -34.8533,-29.2133 h -34.7067"
             style="opacity:0.25;fill:#000000;fill-opacity:1;fill-rule:nonzero;stroke:none;stroke-width:0.133333" />
          <path
             id="path36"
             d="m 4541.1599,1414.8401 h -60.12 v -245.96 h 97.04 c 27.6933,0 51.7067,8.7466 70.1467,25.9466 17.9066,17.2934 27.0533,38.52 27.0533,62.92 0,24.5867 -9.16,45.7734 -27.0933,62.6667 -18.8134,17.1467 -43.4,25.92 -71.52,25.92 h -35.5067 v 68.5067 m 2.2267,-186.3067 v 58.1733 l 34.6933,0.12 c 17.6667,0 34.8533,-12.1733 34.8533,-29.08 0,-16.88 -17.2933,-29.2133 -34.8533,-29.2133 h -34.6933"
             style="opacity:0.25;fill:#000000;fill-opacity:1;fill-rule:nonzero;stroke:none;stroke-width:0.133333" />
          <path
             id="path37"
             d="m 4819.0132,1414.8401 h -67.9067 l -0.7333,-186.3067 h -62.8933 v -59.6533 h 191.96 v 59.6533 h -62.7334 l 2.3067,186.3067"
             style="opacity:0.25;fill:#000000;fill-opacity:1;fill-rule:nonzero;stroke:none;stroke-width:0.133333" />
          <path
             id="path38"
             d="m 4123.7732,1352.1334 c 0,-22.1333 18.4534,-40.6133 40.6267,-40.6133 22.04,0 40.6133,18.56 40.6133,40.6133 0,22.16 -18.48,40.4533 -40.6133,40.4533 -22.2667,0 -40.6267,-18.2 -40.6267,-40.4533"
             style="fill:#ffffff;fill-opacity:1;fill-rule:nonzero;stroke:none;stroke-width:0.133333" />
          <path
             id="path39"
             d="m 4323.4132,1189.4801 h -34.6933 v 58.16 l 34.6933,0.12 c 17.68,0 34.8534,-12.16 34.8534,-29.0667 0,-16.8933 -17.28,-29.2133 -34.8534,-29.2133 z m -97.04,186.2933 v -245.96 h 97.04 c 27.6934,0 51.72,8.76 70.1467,25.96 17.92,17.28 27.0533,38.5067 27.0533,62.92 0,24.5867 -9.1466,45.76 -27.08,62.6533 -18.8133,17.1467 -43.4,25.92 -71.5333,25.92 h -35.5067 v 68.5067 h -60.12"
             style="fill:#ffffff;fill-opacity:1;fill-rule:nonzero;stroke:none;stroke-width:0.133333" />
          <path
             id="path40"
             d="m 4539.0132,1189.4801 h -34.6933 v 58.16 l 34.7067,0.12 c 17.6666,0 34.84,-12.16 34.84,-29.0667 0,-16.8933 -17.28,-29.2133 -34.8534,-29.2133 z m -97.04,186.2933 v -245.96 h 97.04 c 27.6934,0 51.72,8.76 70.1467,25.96 17.92,17.28 27.0533,38.5067 27.0533,62.92 0,24.5867 -9.1466,45.76 -27.08,62.6533 -18.8133,17.1467 -43.4,25.92 -71.5333,25.92 h -35.5067 v 68.5067 h -60.12"
             style="fill:#ffffff;fill-opacity:1;fill-rule:nonzero;stroke:none;stroke-width:0.133333" />
          <path
             id="path41"
             d="m 4648.4266,1129.8134 h 191.9466 v 59.6667 h -62.7333 l 2.3066,186.2933 h -67.8933 l -0.7333,-186.2933 h -62.8933 v -59.6667"
             style="fill:#ffffff;fill-opacity:1;fill-rule:nonzero;stroke:none;stroke-width:0.133333" />
        </g>
        <path
           id="path22-6"
           d="m 4966.6691,1413.5467 -69.04,-0.1866 73.8,-122.9467 -73.8133,-122.84 h 69.0533 l 44.2134,67.72 44.36,-67.72 h 69.08 l -74.1867,122.84 74.1733,123.12 h -69.0666 l -44.36,-67.9867 -44.2134,68"
           style="opacity:0.25;fill:#000000;fill-opacity:1;fill-rule:nonzero;stroke:none;stroke-width:0.133333" />
        <path
           id="path26-14"
           d="m 4858.5491,1128.5067 h 69.0667 l 44.2,67.72 44.3733,-67.72 h 69.0667 l -74.1733,122.84 74.16,123.1334 h -69.0667 l -44.36,-67.9867 -44.2,67.9867 -69.04,-0.1734 73.7867,-122.96 -73.8134,-122.84"
           style="fill:#ffffff;fill-opacity:1;fill-rule:nonzero;stroke:none;stroke-width:0.133333" />
      </g>
      <rect
         style="opacity:0.25;fill:none;fill-opacity:1;fill-rule:evenodd;stroke:#000000;stroke-width:0.48;stroke-linecap:round;stroke-linejoin:round;stroke-miterlimit:10000"
         id="rect9-1-1"
         width="1171.563"
         height="1355.307"
         x="3969.2"
         y="303.93326" />
    </g>
  </g>
</svg>
