<?xml version="1.0" encoding="UTF-8" standalone="no"?>
<!-- Created with Inkscape (http://www.inkscape.org/) -->

<svg
   version="1.1"
   id="svg1"
   width="1171.8029"
   height="1355.7866"
   viewBox="0 0 1171.8029 1355.7866"
   xmlns="http://www.w3.org/2000/svg"
   xmlns:svg="http://www.w3.org/2000/svg">
  <defs
     id="defs1" />
  <g
     id="g1"
     transform="translate(-348.37066,-3677.8268)">
    <g
       id="g23">
      <rect
         style="opacity:0.25;fill:none;fill-opacity:1;fill-rule:evenodd;stroke:none;stroke-width:0.48;stroke-linecap:round;stroke-linejoin:round;stroke-miterlimit:10000"
         id="rect9-1-2-7"
         width="1171.563"
         height="1355.307"
         x="348.61066"
         y="3678.0664" />
      <g
         id="g9">
        <path
           id="path55"
           d="M 1370.2933,5033.6133 H 559.30399 c -38.82667,0 -70.304,-31.48 -70.304,-70.3067 v -78.2933 h 740.67061 c 38.8267,0 70.3027,-31.48 70.3027,-70.3067 v -594.3333 0 -242.1866 l 138.92,134.7333 h -0.053 l 1.76,1.7067 v 0.08 254.2666 594.3333 c 0,38.8267 -31.48,70.3067 -70.3067,70.3067"
           style="opacity:0.25;fill:#000000;fill-opacity:1;fill-rule:nonzero;stroke:none;stroke-width:0.133333" />
        <path
           id="path56"
           d="M 1002.8706,3677.8267 H 418.67466 c -38.82667,0 -70.304,31.48 -70.304,70.3066 v 1066.5733 c 0,38.8267 31.47733,70.3067 70.304,70.3067 h 810.99594 c 38.8267,0 70.3027,-31.48 70.3027,-70.3067 v -848.6799 l -297.1027,-288.2"
           style="fill:#5b2e4c;fill-opacity:1;fill-rule:nonzero;stroke:none;stroke-width:0.133333" />
        <path
           id="path57"
           d="m 1002.8706,3677.8267 v 216.1866 c 0,38.8267 31.4774,70.3067 70.304,70.3067 h 225.088 l -295.392,-286.4933"
           style="fill:#ffffff;fill-opacity:1;fill-rule:nonzero;stroke:none;stroke-width:0.133333" />
        <path
           id="path58"
           d="m 1299.9733,4220.3733 c -116.028,-116.04 -270.5147,-270.5733 -274.4653,-274.68 0.099,0.093 0.1933,0.1734 0.292,0.2667 12.184,11.6267 28.9773,18.3067 47.136,18.36 0,0 0.011,0 0.012,0 0.076,0 0.1506,0 0.2266,0 h 225.0094 l 1.7893,1.7867 v 254.2666"
           style="fill:#522944;fill-opacity:1;fill-rule:nonzero;stroke:none;stroke-width:0.133333" />
        <path
           id="path59"
           d="m 1072.948,3964.32 c 0,0 -0.01,0 -0.012,0 0.01,0 0.01,0 0.012,0 m -47.148,-18.36 c -0.099,-0.093 -0.1934,-0.1733 -0.292,-0.2667 -0.053,-0.053 -0.08,-0.08 -0.077,-0.08 0,0 0.036,0.027 0.1014,0.093 0.089,0.08 0.1786,0.1733 0.268,0.2533"
           style="fill:#e5e5e5;fill-opacity:1;fill-rule:nonzero;stroke:none;stroke-width:0.133333" />
      </g>
      <g
         id="g22">
        <g
           id="g19"
           transform="translate(-1454.71)">
          <path
             id="path73-2-6"
             d="m 2028.818,4799.68 c -22.2533,0 -40.6133,-18.1867 -40.6133,-40.44 0,-22.1467 18.4533,-40.6267 40.6133,-40.6267 22.0533,0 40.6267,18.5733 40.6267,40.6267 0,22.16 -18.48,40.44 -40.6267,40.44"
             style="opacity:0.25;fill:#000000;fill-opacity:1;fill-rule:nonzero;stroke:none;stroke-width:0.133333" />
          <path
             id="path77-1-1"
             d="m 1949.138,4720.1733 c 0,-22.1467 18.4533,-40.6133 40.6267,-40.6133 22.0533,0 40.6133,18.56 40.6133,40.6133 0,22.16 -18.48,40.4533 -40.6133,40.4533 -22.2534,0 -40.6267,-18.2 -40.6267,-40.4533"
             style="fill:#ffffff;fill-opacity:1;fill-rule:nonzero;stroke:none;stroke-width:0.133333" />
        </g>
        <g
           id="g20"
           transform="translate(67.060853)">
          <path
             d="m 563.96415,4539.7976 h 55.16272 v 243.0437 h -55.16272 z m 84.77705,0 h 68.27069 q 36.04692,0 57.89354,20.5723 21.84662,20.5722 21.84662,54.2524 0,35.5008 -22.21073,55.7089 -22.02867,20.0261 -61.17054,20.0261 h -9.46687 v 92.484 H 648.7412 Z m 55.16271,46.6062 v 57.3474 q 18.56963,-0.3642 27.30828,-7.1002 8.9207,-6.736 8.9207,-21.3005 0,-15.6567 -8.55659,-22.0286 -8.55659,-6.554 -27.67239,-6.9181 z m 87.14378,-46.6062 h 61.89876 q 20.57223,52.4319 29.85704,80.8325 h 0.72823 q 9.28481,-29.1288 29.49293,-80.8325 h 63.3552 L 911.2041,4672.88 v 109.9613 H 855.31316 V 4672.88 Z m 189.45877,0 h 55.70884 l 70.0913,140.1825 -2.0026,-26.2159 v -113.9666 h 55.1627 v 243.0437 h -56.6192 l -68.6348,-137.9978 1.4565,30.2211 v 107.7767 h -55.16274 z m 206.93604,0 h 56.073 q 48.9728,0 70.4553,19.2979 21.4826,19.1158 21.4826,48.7908 0,32.0417 -31.3135,51.5216 35.5007,14.0182 35.5007,53.3422 0,31.4955 -22.0287,50.7934 -22.0286,19.2978 -58.0756,19.2978 h -72.0938 z m 55.1627,46.6062 v 52.4319 q 36.9572,-0.9103 36.9572,-25.6698 0,-14.7465 -8.9207,-20.5722 -8.7386,-5.8258 -28.0365,-6.1899 z m 0,96.4892 v 52.614 q 20.9364,-0.3641 31.3135,-6.372 10.5592,-6.1898 10.5592,-20.2081 0,-26.0339 -37.3213,-26.0339 z"
             id="text1-1"
             style="font-size:372.849px;line-height:1.35;font-family:'Tw Cen MT Condensed Extra Bold';-inkscape-font-specification:'Tw Cen MT Condensed Extra Bold, ';text-align:end;letter-spacing:-24.274px;word-spacing:0px;text-anchor:end;opacity:0.25;fill-rule:evenodd;stroke-width:0.48;stroke-linecap:round;stroke-linejoin:round;stroke-miterlimit:10000"
             aria-label="IPYNB" />
          <path
             d="m 529.96415,4505.7976 h 55.16272 v 243.0437 h -55.16272 z m 84.77705,0 h 68.27069 q 36.04692,0 57.89354,20.5723 21.84662,20.5722 21.84662,54.2524 0,35.5008 -22.21073,55.7089 -22.02867,20.0261 -61.17054,20.0261 h -9.46687 v 92.484 H 614.7412 Z m 55.16271,46.6062 v 57.3474 q 18.56963,-0.3642 27.30828,-7.1002 8.9207,-6.736 8.9207,-21.3005 0,-15.6567 -8.55659,-22.0286 -8.55659,-6.554 -27.67239,-6.9181 z m 87.14378,-46.6062 h 61.89876 q 20.57223,52.4319 29.85704,80.8325 h 0.72823 q 9.28481,-29.1288 29.49293,-80.8325 h 63.3552 L 877.2041,4638.88 v 109.9613 H 821.31316 V 4638.88 Z m 189.45877,0 h 55.70884 l 70.0913,140.1825 -2.0026,-26.2159 v -113.9666 h 55.1627 v 243.0437 h -56.6192 l -68.6348,-137.9978 1.4565,30.2211 v 107.7767 h -55.16274 z m 206.93604,0 h 56.073 q 48.9728,0 70.4553,19.2979 21.4826,19.1158 21.4826,48.7908 0,32.0417 -31.3135,51.5216 35.5007,14.0182 35.5007,53.3422 0,31.4955 -22.0287,50.7934 -22.0286,19.2978 -58.0756,19.2978 h -72.0938 z m 55.1627,46.6062 v 52.4319 q 36.9572,-0.9103 36.9572,-25.6698 0,-14.7465 -8.9207,-20.5722 -8.7386,-5.8258 -28.0365,-6.1899 z m 0,96.4892 v 52.614 q 20.9364,-0.3641 31.3135,-6.372 10.5592,-6.1898 10.5592,-20.2081 0,-26.0339 -37.3213,-26.0339 z"
             id="text1"
             style="font-size:372.849px;line-height:1.35;font-family:'Tw Cen MT Condensed Extra Bold';-inkscape-font-specification:'Tw Cen MT Condensed Extra Bold, ';text-align:end;letter-spacing:-24.274px;word-spacing:0px;text-anchor:end;fill:#ffffff;fill-rule:evenodd;stroke-width:0.48;stroke-linecap:round;stroke-linejoin:round;stroke-miterlimit:10000"
             aria-label="IPYNB" />
        </g>
      </g>
    </g>
  </g>
</svg>
