<?xml version="1.0" encoding="UTF-8" standalone="no"?>
<!-- Created with Inkscape (http://www.inkscape.org/) -->

<svg
   version="1.1"
   id="svg1"
   width="1172.043"
   height="1355.787"
   viewBox="0 0 1172.043 1355.787"
   xmlns="http://www.w3.org/2000/svg"
   xmlns:svg="http://www.w3.org/2000/svg">
  <defs
     id="defs1" />
  <g
     id="g1"
     transform="translate(-348.37066,-303.69327)">
    <g
       id="g13">
      <g
         id="g11">
        <g
           id="g2">
          <path
             id="path3"
             d="M 1370.2933,1659.4801 H 559.30399 c -38.82667,0 -70.304,-31.4667 -70.304,-70.2934 v -78.2933 h 740.67061 c 38.8267,0 70.3027,-31.48 70.3027,-70.3067 v -594.34662 0 -242.18666 l 138.92,134.73333 h -0.053 l 1.76,1.70666 v 0.08 254.26667 594.34662 c 0,38.8267 -31.48,70.2934 -70.3067,70.2934"
             style="opacity:0.25;fill:#000000;fill-opacity:1;fill-rule:nonzero;stroke:none;stroke-width:0.133333" />
          <path
             id="path4"
             d="M 1002.8706,303.69343 H 418.67466 c -38.82667,0 -70.304,31.47999 -70.304,70.30666 V 1440.5867 c 0,38.8267 31.47733,70.3067 70.304,70.3067 h 810.99594 c 38.8267,0 70.3027,-31.48 70.3027,-70.3067 V 591.90675 L 1002.8706,303.69343"
             style="fill:#5594aa;fill-opacity:1;fill-rule:nonzero;stroke:none;stroke-width:0.133333" />
          <path
             id="path5"
             d="m 1002.8706,303.69343 v 216.19999 c 0,38.82667 31.4774,70.29333 70.304,70.29333 h 225.088 l -295.392,-286.49332"
             style="fill:#ffffff;fill-opacity:1;fill-rule:nonzero;stroke:none;stroke-width:0.133333" />
          <path
             id="path6"
             d="m 1299.9733,846.24008 c -116.036,-116.04 -270.5347,-270.58666 -274.4667,-274.67999 0.097,0.0933 0.1947,0.18666 0.292,0.26666 12.184,11.62667 28.9774,18.30667 47.1374,18.36 0,0 0.011,0 0.012,0 0.076,0 0.1506,0 0.2266,0 h 225.0094 l 1.7893,1.8 v 254.25333"
             style="fill:#4c8599;fill-opacity:1;fill-rule:nonzero;stroke:none;stroke-width:0.133333" />
          <path
             id="path7"
             d="m 1072.948,590.18675 c 0,0 -0.01,0 -0.012,0 0.01,0 0.01,0 0.012,0 m -47.1494,-18.36 c -0.097,-0.08 -0.1946,-0.17333 -0.292,-0.26666 -0.052,-0.0533 -0.079,-0.08 -0.076,-0.08 0,0 0.036,0.04 0.1014,0.0933 0.089,0.0933 0.1773,0.17333 0.2666,0.25333"
             style="fill:#e5e5e5;fill-opacity:1;fill-rule:nonzero;stroke:none;stroke-width:0.133333" />
          <path
             id="path8"
             d="m 477.41465,1431.7334 c -22.25733,0 -40.61866,-18.2 -40.61866,-40.4533 0,-22.1334 18.44933,-40.6134 40.61866,-40.6134 22.04934,0 40.616,18.56 40.616,40.6134 0,22.16 -18.476,40.4533 -40.616,40.4533"
             style="opacity:0.25;fill:#000000;fill-opacity:1;fill-rule:nonzero;stroke:none;stroke-width:0.133333" />
          <path
             id="path9"
             d="m 610.19198,1414.9201 h -70.79866 v -245.8 h 76.14 v -0.16 h 5.34 c 43.43866,0 79.736,14.72 104.324,36.16 23.08799,22.2266 34.52666,51.52 34.52666,87.04 0,35.52 -11.448,64.7466 -34.536,86.7733 -30.44,23.9467 -69.33733,35.9867 -114.996,35.9867 m -5.30266,-186.3067 0.572,126.3467 h 6.63333 c 48.74533,0 79.44133,-21.5867 85.016,-63.1734 0,-40.9333 -33.37733,-63.1733 -76.39067,-63.1733 h -15.83066"
             style="opacity:0.25;fill:#000000;fill-opacity:1;fill-rule:nonzero;stroke:none;stroke-width:0.133333" />
          <path
             id="path10"
             d="m 902.83464,1416.6001 c -37.86666,-0.093 -65.94799,-12.28 -92.67199,-36.32 -25.40134,-24.3067 -38.23334,-53.9467 -38.23334,-88.2 0,-34.16 12.832,-63.8267 38.21734,-88.3334 26.91866,-24.4133 55.01733,-36.7733 92.69466,-36.7733 37.67333,0 65.78533,12.3733 92.69067,36.7733 25.48932,24.3867 38.38402,54.08 38.38402,88.3334 0,34.3466 -12.8947,64 -38.40136,88.2133 -26.81066,24.1067 -54.90933,36.3067 -92.68,36.3067 m 0.009,-189.0534 c -20.66667,0 -33.128,6.1867 -47.39867,18.8267 -14.54,12.8667 -21.61066,27.7733 -21.61066,45.4133 0,17.84 7.07733,32.7334 21.58266,45.3867 14.38533,12.56 26.864,18.7067 47.42667,18.7067 20.212,0 32.664,-6.1334 47.28933,-18.7334 14.592,-12.56 21.71867,-27.44 21.71867,-45.36 0,-17.7333 -7.12,-32.6266 -21.74667,-45.4 -14.51067,-12.6666 -26.94533,-18.84 -47.26133,-18.84"
             style="opacity:0.25;fill:#000000;fill-opacity:1;fill-rule:nonzero;stroke:none;stroke-width:0.133333" />
          <path
             id="path11"
             d="m 1182.716,1416.6001 c -38.232,-0.093 -71.24,-12.2934 -98.292,-36.32 -25.4094,-24.3067 -38.2414,-53.9467 -38.2414,-88.2 0,-34.16 12.832,-63.8267 38.224,-88.3334 27.2507,-24.4 60.2774,-36.7733 98.3174,-36.7733 h 7.324 l -0.208,0.7733 c 37.9546,1.76 68.2613,17.7334 89.0773,37.8 l 3.9133,3.7734 -43.2266,42.8533 -4.0427,-3.7333 c -14.9227,-13.7467 -32.22,-20.4267 -52.6747,-20.4267 -20.804,0 -38.0026,6.1733 -52.456,18.8133 -14.7173,12.8667 -21.8786,27.7867 -21.8786,45.4134 0,17.84 7.1666,32.7333 21.852,45.3866 14.5693,12.5734 31.7853,18.7067 52.4826,18.7067 20.8054,0 38.132,-6.6933 52.8094,-20.4133 l 4.044,-3.7734 43.1933,42.8134 -3.812,3.7866 c -11.78,11.6667 -25.6907,20.9467 -42.188,27.8134 -16.768,6.7066 -34.8707,10.04 -54.2173,10.04"
             style="opacity:0.25;fill:#000000;fill-opacity:1;fill-rule:nonzero;stroke:none;stroke-width:0.133333" />
          <path
             id="path12"
             d="m 397.73466,1352.2267 c 0,-22.1466 18.44933,-40.6266 40.61733,-40.6266 22.05067,0 40.61733,18.5733 40.61733,40.6266 0,22.16 -18.476,40.44 -40.61733,40.44 -22.256,0 -40.61733,-18.1866 -40.61733,-40.44"
             style="fill:#ffffff;fill-opacity:1;fill-rule:nonzero;stroke:none;stroke-width:0.133333" />
          <path
             id="path13"
             d="m 581.65865,1189.5601 h -15.83066 l 0.572,126.3333 h 6.63333 c 48.74533,0 79.44133,-21.5733 85.016,-63.16 0,-40.9467 -33.37734,-63.1733 -76.39067,-63.1733 z m -5.188,-59.5067 v -0.16 h 5.34 c 43.43867,0 79.73733,14.72 104.32533,36.16 23.088,22.2267 34.52667,51.52 34.52667,87.04 0,35.5333 -11.448,64.7467 -34.536,86.7733 -30.44,23.9467 -69.33733,36 -114.996,36 h -70.79866 v -245.8133 h 76.13866"
             style="fill:#ffffff;fill-opacity:1;fill-rule:nonzero;stroke:none;stroke-width:0.133333" />
          <path
             id="path14"
             d="m 863.78131,1188.4934 c -20.66533,0 -33.12666,6.1867 -47.39733,18.8133 -14.54,12.8667 -21.61067,27.7867 -21.61067,45.4134 0,17.84 7.076,32.7333 21.584,45.4 14.384,12.5466 26.86134,18.6933 47.424,18.6933 20.21467,0 32.66533,-6.1333 47.28933,-18.72 14.59334,-12.56 21.71867,-27.44 21.71867,-45.3733 0,-17.72 -7.11733,-32.6267 -21.74533,-45.3867 -14.51067,-12.6667 -26.94534,-18.84 -47.26267,-18.84 z m -10e-4,-60.5733 c 37.67333,0 65.78666,12.36 92.69066,36.76 25.48934,24.4 38.384,54.0933 38.384,88.3333 0,34.3467 -12.89466,64.0133 -38.40133,88.2133 -26.81067,24.1067 -54.90933,36.32 -92.68133,36.32 -37.86533,-0.1066 -65.94667,-12.2933 -92.672,-36.32 -25.39867,-24.32 -38.23066,-53.96 -38.23066,-88.2133 0,-34.1467 12.83199,-63.8267 38.21599,-88.3333 26.92,-24.4 55.01734,-36.76 92.69467,-36.76"
             style="fill:#ffffff;fill-opacity:1;fill-rule:nonzero;stroke:none;stroke-width:0.133333" />
          <path
             id="path15"
             d="m 1150.7786,1128.6934 c 37.9547,1.76 68.2614,17.72 89.0774,37.8 l 3.9146,3.7733 -43.228,42.84 -4.0426,-3.72 c -14.9227,-13.7466 -32.22,-20.44 -52.6734,-20.44 -20.8053,0 -38.004,6.1867 -52.4573,18.8134 -14.7187,12.8666 -21.8787,27.7866 -21.8787,45.4133 0,17.84 7.1667,32.7333 21.852,45.4 14.568,12.56 31.7854,18.6933 52.484,18.6933 20.804,0 38.1307,-6.6933 52.8094,-20.4 l 4.0426,-3.7866 43.1934,42.8266 -3.812,3.7734 c -11.7814,11.68 -25.6907,20.96 -42.188,27.8133 -16.768,6.72 -34.8694,10.0533 -54.2174,10.0533 -38.232,-0.1066 -71.24,-12.2933 -98.2933,-36.32 -25.408,-24.32 -38.24,-53.96 -38.24,-88.2133 0,-34.1467 12.832,-63.8267 38.224,-88.3333 27.2507,-24.4 60.2773,-36.76 98.3173,-36.76 h 7.324 l -0.208,0.7733"
             style="fill:#ffffff;fill-opacity:1;fill-rule:nonzero;stroke:none;stroke-width:0.133333" />
        </g>
        <path
           id="path22-7"
           d="m 1362.7599,1413.5467 -69.04,-0.1866 73.8,-122.9467 -73.8133,-122.84 h 69.0533 l 44.2134,67.72 44.36,-67.72 h 69.08 l -74.1867,122.84 74.1733,123.12 h -69.0666 l -44.36,-67.9867 -44.2134,68"
           style="opacity:0.25;fill:#000000;fill-opacity:1;fill-rule:nonzero;stroke:none;stroke-width:0.133333" />
        <path
           id="path26-1"
           d="m 1254.6399,1128.5067 h 69.0667 l 44.2,67.72 44.3733,-67.72 h 69.0667 l -74.1733,122.84 74.16,123.1334 h -69.0667 l -44.36,-67.9867 -44.2,67.9867 -69.04,-0.1734 73.7867,-122.96 -73.8134,-122.84"
           style="fill:#ffffff;fill-opacity:1;fill-rule:nonzero;stroke:none;stroke-width:0.133333" />
      </g>
      <rect
         style="opacity:0.25;fill:none;fill-opacity:1;fill-rule:evenodd;stroke:#000000;stroke-width:0.48;stroke-linecap:round;stroke-linejoin:round;stroke-miterlimit:10000"
         id="rect9-1-6"
         width="1171.563"
         height="1355.307"
         x="348.61066"
         y="303.93326" />
    </g>
  </g>
</svg>
