<?xml version="1.0" encoding="UTF-8" standalone="no"?>
<!-- Created with Inkscape (http://www.inkscape.org/) -->

<svg
   version="1.1"
   id="svg1"
   width="1172.043"
   height="1355.7871"
   viewBox="0 0 1172.043 1355.7871"
   xmlns="http://www.w3.org/2000/svg"
   xmlns:svg="http://www.w3.org/2000/svg">
  <defs
     id="defs1" />
  <g
     id="g1"
     transform="translate(-3968.9599,-1988.7732)">
    <g
       id="g18">
      <g
         id="g6">
        <path
           id="path107"
           d="m 4990.8799,3344.56 h -810.9867 c -38.8266,0 -70.3066,-31.48 -70.3066,-70.3066 V 3195.96 h 740.6666 c 38.8267,0 70.3067,-31.48 70.3067,-70.3066 v -594.3334 0 -242.1866 l 138.92,134.7333 h -0.053 l 1.76,1.7067 v 0.08 254.2666 594.3334 c 0,38.8266 -31.48,70.3066 -70.3066,70.3066"
           style="opacity:0.25;fill:#000000;fill-opacity:1;fill-rule:nonzero;stroke:none;stroke-width:0.133333" />
        <path
           id="path108"
           d="m 4623.4532,1988.7734 h -584.1866 c -38.84,0 -70.3067,31.48 -70.3067,70.3066 v 1066.5734 c 0,38.8266 31.4667,70.3066 70.3067,70.3066 h 810.9866 c 38.8267,0 70.3067,-31.48 70.3067,-70.3066 v -848.68 l -297.1067,-288.2"
           style="fill:#294859;fill-opacity:1;fill-rule:nonzero;stroke:none;stroke-width:0.133333" />
        <path
           id="path109"
           d="M 4623.4532,1988.7734 V 2204.96 c 0,38.8267 31.48,70.3067 70.3067,70.3067 h 225.0933 l -295.4,-286.4933"
           style="fill:#ffffff;fill-opacity:1;fill-rule:nonzero;stroke:none;stroke-width:0.133333" />
        <path
           id="path110"
           d="m 4920.5599,2531.32 c -116.04,-116.0533 -270.5333,-270.6 -274.4667,-274.68 0.093,0.093 0.1867,0.1734 0.2934,0.2667 12.1866,11.6267 28.9733,18.3067 47.1333,18.36 h 0.013 c 0.08,0 0.1467,0 0.2267,0 h 225.0133 l 1.7867,1.7867 V 2531.32"
           style="fill:#254150;fill-opacity:1;fill-rule:nonzero;stroke:none;stroke-width:0.133333" />
        <path
           id="path111"
           d="m 4693.5332,2275.2667 h -0.013 0.013 m -47.1466,-18.36 c -0.1067,-0.093 -0.2,-0.1733 -0.2934,-0.2667 -0.053,-0.053 -0.08,-0.08 -0.08,-0.08 0,0 0.04,0.027 0.1067,0.093 0.08,0.08 0.1733,0.1733 0.2667,0.2533"
           style="fill:#e5e5e5;fill-opacity:1;fill-rule:nonzero;stroke:none;stroke-width:0.133333" />
        <path
           id="path112"
           d="m 4220.0799,3115.12 c -22.2533,0 -40.6133,-18.2 -40.6133,-40.4533 0,-22.1467 18.44,-40.6267 40.6133,-40.6267 22.0533,0 40.6267,18.5734 40.6267,40.6267 0,22.16 -18.48,40.4533 -40.6267,40.4533"
           style="opacity:0.25;fill:#000000;fill-opacity:1;fill-rule:nonzero;stroke:none;stroke-width:0.133333" />
        <path
           id="path113"
           d="m 4376.9732,3098.3067 h -67.9066 L 4308.3332,2912 h -62.8933 v -59.6533 h 191.9467 V 2912 h -62.72 l 2.3066,186.3067"
           style="opacity:0.25;fill:#000000;fill-opacity:1;fill-rule:nonzero;stroke:none;stroke-width:0.133333" />
        <path
           id="path114"
           d="m 4518.6932,3098.32 -69.04,-0.1866 73.8,-122.96 -73.8133,-122.8267 h 69.0533 l 44.2134,67.7067 44.36,-67.7067 h 69.0666 l -74.1733,122.84 74.16,123.12 h -69.0667 l -44.3466,-67.9867 -44.2134,68"
           style="opacity:0.25;fill:#000000;fill-opacity:1;fill-rule:nonzero;stroke:none;stroke-width:0.133333" />
        <path
           id="path115"
           d="m 4820.0665,3098.3067 h -67.8933 L 4751.4399,2912 h -62.8934 v -59.6533 h 191.9467 V 2912 h -62.72 l 2.2933,186.3067"
           style="opacity:0.25;fill:#000000;fill-opacity:1;fill-rule:nonzero;stroke:none;stroke-width:0.133333" />
        <path
           id="path116"
           d="m 4140.3999,3035.6 c 0,-22.1333 18.4533,-40.6133 40.6267,-40.6133 22.04,0 40.6133,18.56 40.6133,40.6133 0,22.16 -18.48,40.4534 -40.6133,40.4534 -22.2667,0 -40.6267,-18.2 -40.6267,-40.4534"
           style="fill:#ffffff;fill-opacity:1;fill-rule:nonzero;stroke:none;stroke-width:0.133333" />
        <path
           id="path117"
           d="m 4206.3866,2813.28 h 191.9466 v 59.6667 h -62.7333 l 2.3067,186.2933 h -67.8934 l -0.7333,-186.2933 h -62.8933 V 2813.28"
           style="fill:#ffffff;fill-opacity:1;fill-rule:nonzero;stroke:none;stroke-width:0.133333" />
        <path
           id="path118"
           d="m 4410.5732,2813.28 h 69.0534 l 44.2133,67.72 44.36,-67.72 h 69.08 l -74.1867,122.84 74.1734,123.12 h -69.0667 l -44.36,-67.9866 -44.2133,68 -69.0267,-0.1867 73.7867,-122.9467 -73.8134,-122.84"
           style="fill:#ffffff;fill-opacity:1;fill-rule:nonzero;stroke:none;stroke-width:0.133333" />
        <path
           id="path119"
           d="m 4649.4799,2813.28 h 191.96 v 59.6667 h -62.7334 l 2.3067,186.2933 h -67.9067 l -0.7333,-186.2933 h -62.8933 V 2813.28"
           style="fill:#ffffff;fill-opacity:1;fill-rule:nonzero;stroke:none;stroke-width:0.133333" />
      </g>
      <rect
         style="opacity:0.25;fill:none;fill-opacity:1;fill-rule:evenodd;stroke:#000000;stroke-width:0.48;stroke-linecap:round;stroke-linejoin:round;stroke-miterlimit:10000"
         id="rect9-1-11"
         width="1171.563"
         height="1355.307"
         x="3969.2"
         y="1989.0132" />
    </g>
  </g>
</svg>
