<?xml version="1.0" encoding="UTF-8" standalone="no"?>
<!-- Created with Inkscape (http://www.inkscape.org/) -->

<svg
   version="1.1"
   id="svg1"
   width="1172.043"
   height="1355.7871"
   viewBox="0 0 1172.043 1355.7871"
   xmlns="http://www.w3.org/2000/svg"
   xmlns:svg="http://www.w3.org/2000/svg">
  <defs
     id="defs1" />
  <g
     id="g1"
     transform="translate(-348.37066,-1988.7732)">
    <g
       id="g16">
      <g
         id="g4">
        <path
           id="path42"
           d="M 1370.2933,3344.56 H 559.30399 c -38.82667,0 -70.304,-31.48 -70.304,-70.3066 V 3195.96 h 740.67061 c 38.8267,0 70.3027,-31.48 70.3027,-70.3066 v -594.3334 0 -242.1866 l 138.92,134.7333 h -0.053 l 1.76,1.7067 v 0.08 254.2666 594.3334 c 0,38.8266 -31.48,70.3066 -70.3067,70.3066"
           style="opacity:0.25;fill:#000000;fill-opacity:1;fill-rule:nonzero;stroke:none;stroke-width:0.133333" />
        <path
           id="path43"
           d="M 1002.8706,1988.7734 H 418.67466 c -38.82667,0 -70.304,31.48 -70.304,70.3066 v 1066.5734 c 0,38.8266 31.47733,70.3066 70.304,70.3066 h 810.99594 c 38.8267,0 70.3027,-31.48 70.3027,-70.3066 v -848.68 l -297.1027,-288.2"
           style="fill:#f74343;fill-opacity:1;fill-rule:nonzero;stroke:none;stroke-width:0.133333" />
        <path
           id="path44"
           d="M 1002.8706,1988.7734 V 2204.96 c 0,38.8267 31.4774,70.3067 70.304,70.3067 h 225.088 l -295.392,-286.4933"
           style="fill:#ffffff;fill-opacity:1;fill-rule:nonzero;stroke:none;stroke-width:0.133333" />
        <path
           id="path45"
           d="m 1299.9733,2531.32 c -116.036,-116.0533 -270.5347,-270.6 -274.4667,-274.68 0.097,0.093 0.1947,0.1734 0.292,0.2667 12.184,11.6267 28.9774,18.3067 47.1374,18.36 0,0 0.011,0 0.012,0 0.076,0 0.1506,0 0.2266,0 h 225.0094 l 1.7893,1.7867 V 2531.32"
           style="fill:#de3c3c;fill-opacity:1;fill-rule:nonzero;stroke:none;stroke-width:0.133333" />
        <path
           id="path46"
           d="m 1072.948,2275.2667 c 0,0 -0.01,0 -0.012,0 0.01,0 0.01,0 0.012,0 m -47.1494,-18.36 c -0.097,-0.093 -0.1946,-0.1733 -0.292,-0.2667 -0.052,-0.053 -0.079,-0.08 -0.076,-0.08 0,0 0.036,0.027 0.1014,0.093 0.089,0.08 0.1773,0.1733 0.2666,0.2533"
           style="fill:#e5e5e5;fill-opacity:1;fill-rule:nonzero;stroke:none;stroke-width:0.133333" />
        <path
           id="path47"
           d="m 574.10665,3114.6267 c -22.25466,0 -40.616,-18.2 -40.616,-40.4533 0,-22.1467 18.448,-40.6267 40.616,-40.6267 22.052,0 40.61867,18.5733 40.61867,40.6267 0,22.16 -18.476,40.4533 -40.61867,40.4533"
           style="opacity:0.25;fill:#000000;fill-opacity:1;fill-rule:nonzero;stroke:none;stroke-width:0.133333" />
        <path
           id="path48"
           d="m 696.20532,3097.8134 h -60.11867 v -245.96 h 97.036 c 27.696,0 51.72,8.7466 70.152,25.9466 17.912,17.2934 27.052,38.52 27.052,62.92 0,24.5867 -9.14934,45.7734 -27.08667,62.6667 -18.80667,17.1467 -43.396,25.92 -71.524,25.92 h -35.51066 v 68.5067 m 2.22533,-186.3067 v 58.1733 l 34.704,0.12 c 17.66666,0 34.848,-12.1733 34.848,-29.08 0,-16.88 -17.288,-29.2133 -34.86,-29.2133 h -34.692"
           style="opacity:0.25;fill:#000000;fill-opacity:1;fill-rule:nonzero;stroke:none;stroke-width:0.133333" />
        <path
           id="path49"
           d="M 922.48664,3097.8134 H 851.68798 V 2852 h 76.13866 v -0.1466 h 5.34 c 43.43867,0 79.73736,14.7066 104.32666,36.1466 23.088,22.2267 34.5253,51.52 34.5253,87.0534 0,35.52 -11.4466,64.7333 -34.5346,86.76 -30.4414,23.9466 -69.33869,36 -114.99736,36 m -5.30133,-186.3067 0.57067,126.3467 h 6.63466 c 48.744,0 79.43996,-21.5867 85.01596,-63.1734 0,-40.9466 -33.37862,-63.1733 -76.39196,-63.1733 h -15.82933"
           style="opacity:0.25;fill:#000000;fill-opacity:1;fill-rule:nonzero;stroke:none;stroke-width:0.133333" />
        <path
           id="path50"
           d="M 1156.3733,3098.12 H 1093.38 v -246.88 h 169.6733 v 59.96 h -106.68 v 33.5734 h 81.9613 v 59.96 h -81.9613 v 93.3866"
           style="opacity:0.25;fill:#000000;fill-opacity:1;fill-rule:nonzero;stroke:none;stroke-width:0.133333" />
        <path
           id="path51"
           d="m 494.42799,3035.1067 c 0,-22.1333 18.44933,-40.6133 40.61866,-40.6133 22.04934,0 40.61734,18.56 40.61734,40.6133 0,22.16 -18.476,40.4533 -40.61734,40.4533 -22.256,0 -40.61866,-18.2 -40.61866,-40.4533"
           style="fill:#ffffff;fill-opacity:1;fill-rule:nonzero;stroke:none;stroke-width:0.133333" />
        <path
           id="path52"
           d="m 694.06132,2872.4534 h -34.692 v 58.16 l 34.704,0.12 c 17.66666,0 34.848,-12.16 34.848,-29.0667 0,-16.8933 -17.288,-29.2133 -34.86,-29.2133 z m -97.036,186.2933 v -245.96 h 97.036 c 27.696,0 51.71999,8.76 70.15199,25.96 17.912,17.28 27.05067,38.5067 27.05067,62.92 0,24.5867 -9.14933,45.76 -27.08533,62.6533 -18.80667,17.1467 -43.396,25.92 -71.52533,25.92 h -35.50934 v 68.5067 h -60.11866"
           style="fill:#ffffff;fill-opacity:1;fill-rule:nonzero;stroke:none;stroke-width:0.133333" />
        <path
           id="path53"
           d="m 893.95331,2872.4534 h -15.83067 l 0.572,126.3333 h 6.63467 c 48.744,0 79.44,-21.5867 85.01467,-63.1733 0,-40.9334 -33.37734,-63.16 -76.39067,-63.16 z m -5.188,-59.52 v -0.1467 h 5.34133 c 43.43867,0 79.736,14.72 104.32534,36.16 23.08662,22.2267 34.52532,51.52 34.52532,87.04 0,35.52 -11.448,64.7467 -34.53599,86.7733 -30.44,23.9467 -69.33733,35.9867 -114.996,35.9867 h -70.79866 v -245.8133 h 76.13866"
           style="fill:#ffffff;fill-opacity:1;fill-rule:nonzero;stroke:none;stroke-width:0.133333" />
        <path
           id="path54"
           d="m 1054.3186,2812.1734 h 169.6734 v 59.9733 h -106.6787 v 33.56 h 81.96 v 59.9733 h -81.96 v 93.3734 h -62.9947 v -246.88"
           style="fill:#ffffff;fill-opacity:1;fill-rule:nonzero;stroke:none;stroke-width:0.133333" />
      </g>
      <rect
         style="opacity:0.25;fill:none;fill-opacity:1;fill-rule:evenodd;stroke:#000000;stroke-width:0.48;stroke-linecap:round;stroke-linejoin:round;stroke-miterlimit:10000"
         id="rect9-1"
         width="1171.563"
         height="1355.307"
         x="348.61066"
         y="1989.0132" />
    </g>
  </g>
</svg>
