<?xml version="1.0" encoding="UTF-8" standalone="no"?>
<!-- Created with Inkscape (http://www.inkscape.org/) -->

<svg
   version="1.1"
   id="svg1"
   width="1172.043"
   height="1355.787"
   viewBox="0 0 1172.043 1355.787"
   xmlns="http://www.w3.org/2000/svg"
   xmlns:svg="http://www.w3.org/2000/svg">
  <defs
     id="defs1" />
  <g
     id="g1"
     transform="translate(-2228.1198,-303.69327)">
    <g
       id="g14">
      <g
         id="g10">
        <path
           id="path16"
           d="m 3250.0399,1659.4801 h -810.9866 c -38.8267,0 -70.3067,-31.4667 -70.3067,-70.2934 v -78.2933 h 740.6667 c 38.8266,0 70.3066,-31.48 70.3066,-70.3067 v -594.34662 0 -242.18666 l 138.92,134.73333 h -0.053 l 1.76,1.70666 v 0.08 254.26667 594.34662 c 0,38.8267 -31.48,70.2934 -70.3067,70.2934"
           style="opacity:0.25;fill:#000000;fill-opacity:1;fill-rule:nonzero;stroke:none;stroke-width:0.133333" />
        <path
           id="path17"
           d="m 2882.6133,303.69343 h -584.1867 c -38.8267,0 -70.3067,31.47999 -70.3067,70.30666 V 1440.5867 c 0,38.8267 31.48,70.3067 70.3067,70.3067 h 810.9867 c 38.8266,0 70.3066,-31.48 70.3066,-70.3067 V 591.90675 L 2882.6133,303.69343"
           style="fill:#62d162;fill-opacity:1;fill-rule:nonzero;stroke:none;stroke-width:0.133333" />
        <path
           id="path18"
           d="m 2882.6133,303.69343 v 216.19999 c 0,38.82667 31.48,70.29333 70.3066,70.29333 h 225.0934 l -295.4,-286.49332"
           style="fill:#ffffff;fill-opacity:1;fill-rule:nonzero;stroke:none;stroke-width:0.133333" />
        <path
           id="path19"
           d="M 3179.7199,846.24008 C 3063.6666,730.18675 2909.1466,575.61342 2905.2533,571.56009 c 0.093,0.0933 0.1866,0.18666 0.2933,0.26666 12.1733,11.62667 28.9733,18.30667 47.1333,18.36 h 0.013 c 0.08,0 0.1466,0 0.2266,0 h 225.0134 l 1.7866,1.8 v 254.25333"
           style="fill:#58bc58;fill-opacity:1;fill-rule:nonzero;stroke:none;stroke-width:0.133333" />
        <path
           id="path20"
           d="m 2952.6933,590.18675 h -0.013 c 0.013,0 0.013,0 0.013,0 m -47.1467,-18.36 c -0.1067,-0.08 -0.2,-0.17333 -0.2933,-0.26666 -0.053,-0.0533 -0.08,-0.08 -0.08,-0.08 0,0 0.04,0.04 0.1066,0.0933 0.08,0.08 0.1734,0.17333 0.2667,0.25333"
           style="fill:#e5e5e5;fill-opacity:1;fill-rule:nonzero;stroke:none;stroke-width:0.133333" />
        <path
           id="path21"
           d="m 2480.8399,1430.3467 c -22.2533,0 -40.6133,-18.2 -40.6133,-40.4533 0,-22.1333 18.44,-40.6133 40.6133,-40.6133 22.0534,0 40.6267,18.56 40.6267,40.6133 0,22.16 -18.48,40.4533 -40.6267,40.4533"
           style="opacity:0.25;fill:#000000;fill-opacity:1;fill-rule:nonzero;stroke:none;stroke-width:0.133333" />
        <path
           id="path22"
           d="m 2602.7599,1413.5467 -69.04,-0.1866 73.8,-122.9467 -73.8133,-122.84 h 69.0533 l 44.2134,67.72 44.36,-67.72 h 69.08 l -74.1867,122.84 74.1733,123.12 h -69.0666 l -44.36,-67.9867 -44.2134,68"
           style="opacity:0.25;fill:#000000;fill-opacity:1;fill-rule:nonzero;stroke:none;stroke-width:0.133333" />
        <path
           id="path23"
           d="m 2951.4399,1413.5334 h -169.6666 v -245.96 h 60.12 v 186.16 h 109.5466 v 59.8"
           style="opacity:0.25;fill:#000000;fill-opacity:1;fill-rule:nonzero;stroke:none;stroke-width:0.133333" />
        <path
           id="path24"
           d="m 3051.1866,1415.8534 c -44.9867,0 -82.3467,-29.5733 -88.36,-68.9333 l -0.7333,-4.8267 62.8266,-12.8133 v 6.4133 c 0,9.08 10.8534,17.9733 22.6267,19.5067 h 0.053 3.1734 c 12.5866,0 26.0266,-9.3467 26.0266,-18.8134 0,-16.2933 -26.6133,-18.8 -48.4133,-25.2533 -34.16,-10.1067 -62.8533,-34.8267 -62.8533,-69.3867 0,-41.96 36.1733,-75.88 85.4933,-75.88 44.9733,0 79.1333,30.0134 84.56,69 l 0.6667,4.7867 -63.1734,12.7067 c 0,-15.1067 -6.2,-26.0667 -21.72,-26.0667 -11.88,0 -21.9733,8.48 -21.9733,18.8267 0,16.2266 25.1333,21.4666 45.92,26.7333 35.08,8.84 64.88,32.6667 64.88,68.0533 0,42.2534 -40.0133,75.9467 -89,75.9467"
           style="opacity:0.25;fill:#000000;fill-opacity:1;fill-rule:nonzero;stroke:none;stroke-width:0.133333" />
        <path
           id="path25"
           d="m 2401.1599,1350.8401 c 0,-22.1467 18.4534,-40.6267 40.6267,-40.6267 22.04,0 40.6133,18.5733 40.6133,40.6267 0,22.16 -18.48,40.44 -40.6133,40.44 -22.2667,0 -40.6267,-18.1867 -40.6267,-40.44"
           style="fill:#ffffff;fill-opacity:1;fill-rule:nonzero;stroke:none;stroke-width:0.133333" />
        <path
           id="path26"
           d="m 2494.6399,1128.5067 h 69.0667 l 44.2,67.72 44.3733,-67.72 h 69.0667 l -74.1733,122.84 74.16,123.1334 h -69.0667 l -44.36,-67.9867 -44.2,67.9867 -69.04,-0.1734 73.7867,-122.96 -73.8134,-122.84"
           style="fill:#ffffff;fill-opacity:1;fill-rule:nonzero;stroke:none;stroke-width:0.133333" />
        <path
           id="path22-8"
           d="m 3213.0694,1413.5467 -69.04,-0.1866 73.8,-122.9467 -73.8133,-122.84 h 69.0533 l 44.2134,67.72 44.36,-67.72 h 69.08 l -74.1867,122.84 74.1733,123.12 h -69.0666 l -44.36,-67.9867 -44.2134,68"
           style="opacity:0.25;fill:#000000;fill-opacity:1;fill-rule:nonzero;stroke:none;stroke-width:0.133333" />
        <path
           id="path26-2"
           d="m 3104.9494,1128.5067 h 69.0667 l 44.2,67.72 44.3733,-67.72 h 69.0667 l -74.1733,122.84 74.16,123.1334 h -69.0667 l -44.36,-67.9867 -44.2,67.9867 -69.04,-0.1734 73.7867,-122.96 -73.8134,-122.84"
           style="fill:#ffffff;fill-opacity:1;fill-rule:nonzero;stroke:none;stroke-width:0.133333" />
        <path
           id="path27"
           d="m 2742.7066,1128.5067 h 60.12 v 186.16 h 109.56 v 59.8134 h -169.68 v -245.9734"
           style="fill:#ffffff;fill-opacity:1;fill-rule:nonzero;stroke:none;stroke-width:0.133333" />
        <path
           id="path28"
           d="m 2985.8666,1296.6401 c 0,9.0666 10.8533,17.96 22.6267,19.4933 l 0.04,0.013 h 3.1866 c 12.5734,0 26.0134,-9.3466 26.0134,-18.8266 0,-16.2934 -26.6134,-18.8 -48.4,-25.2534 -34.1734,-10.0933 -62.8667,-34.8266 -62.8667,-69.3866 0,-41.96 36.1733,-75.88 85.4933,-75.88 44.9734,0 79.1467,30.0133 84.56,69.0133 l 0.6667,4.7733 -63.1733,12.72 c 0,-15.12 -6.1867,-26.0666 -21.72,-26.0666 -11.8667,0 -21.96,8.48 -21.96,18.8133 0,16.24 25.1333,21.4667 45.9066,26.7467 35.08,8.84 64.88,32.6666 64.88,68.04 0,42.2666 -40,75.96 -88.9866,75.96 -45,0 -82.36,-29.5734 -88.36,-68.9334 l -0.7467,-4.84 62.84,-12.8133 v 6.4267"
           style="fill:#ffffff;fill-opacity:1;fill-rule:nonzero;stroke:none;stroke-width:0.133333" />
      </g>
      <rect
         style="opacity:0.25;fill:none;fill-opacity:1;fill-rule:evenodd;stroke:#000000;stroke-width:0.48;stroke-linecap:round;stroke-linejoin:round;stroke-miterlimit:10000"
         id="rect9-1-2"
         width="1171.563"
         height="1355.307"
         x="2228.3599"
         y="303.93326" />
    </g>
  </g>
</svg>
