<?xml version="1.0" encoding="UTF-8" standalone="no"?>
<!-- Created with Inkscape (http://www.inkscape.org/) -->

<svg
   version="1.1"
   id="svg1"
   width="1171.803"
   height="1355.7866"
   viewBox="0 0 1171.803 1355.7866"
   xmlns="http://www.w3.org/2000/svg"
   xmlns:svg="http://www.w3.org/2000/svg">
  <defs
     id="defs1" />
  <g
     id="g1"
     transform="translate(-2228.1199,-3677.8268)">
    <g
       id="g24">
      <g
         id="g8">
        <path
           id="path68"
           d="m 3250.0399,5033.6133 h -810.9866 c -38.8267,0 -70.3067,-31.48 -70.3067,-70.3067 v -78.2933 h 740.6667 c 38.8266,0 70.3066,-31.48 70.3066,-70.3067 v -594.3333 0 -242.1866 l 138.92,134.7333 h -0.053 l 1.76,1.7067 v 0.08 254.2666 594.3333 c 0,38.8267 -31.48,70.3067 -70.3067,70.3067"
           style="opacity:0.25;fill:#000000;fill-opacity:1;fill-rule:nonzero;stroke:none;stroke-width:0.133333" />
        <path
           id="path69"
           d="m 2882.6133,3677.8267 h -584.1867 c -38.8267,0 -70.3067,31.48 -70.3067,70.3066 v 1066.5733 c 0,38.8267 31.48,70.3067 70.3067,70.3067 h 810.9867 c 38.8266,0 70.3066,-31.48 70.3066,-70.3067 v -848.6799 l -297.1066,-288.2"
           style="fill:#293a25;fill-opacity:1;fill-rule:nonzero;stroke:none;stroke-width:0.133333" />
        <path
           id="path70"
           d="m 2882.6133,3677.8267 v 216.1866 c 0,38.8267 31.48,70.3067 70.3066,70.3067 h 225.0934 l -295.4,-286.4933"
           style="fill:#ffffff;fill-opacity:1;fill-rule:nonzero;stroke:none;stroke-width:0.133333" />
        <path
           id="path71"
           d="m 3179.7199,4220.3733 c -116.04,-116.0533 -270.56,-270.6133 -274.4666,-274.68 0.093,0.093 0.1866,0.1734 0.2933,0.2667 12.1733,11.6267 28.9733,18.3067 47.1333,18.36 h 0.013 c 0.08,0 0.1466,0 0.2266,0 h 225.0134 l 1.7866,1.7867 v 254.2666"
           style="fill:#253421;fill-opacity:1;fill-rule:nonzero;stroke:none;stroke-width:0.133333" />
        <path
           id="path72"
           d="m 2952.6933,3964.32 h -0.013 c 0.013,0 0.013,0 0.013,0 m -47.1467,-18.36 c -0.1067,-0.093 -0.2,-0.1733 -0.2933,-0.2667 -0.053,-0.053 -0.08,-0.08 -0.08,-0.08 0,0 0.04,0.027 0.1066,0.093 0.08,0.08 0.1734,0.1733 0.2667,0.2533"
           style="fill:#e5e5e5;fill-opacity:1;fill-rule:nonzero;stroke:none;stroke-width:0.133333" />
      </g>
      <g
         id="g21"
         transform="translate(-3257.1082,1685.0533)">
        <path
           id="path47-8"
           d="m 5930.7758,3114.6267 c -22.2546,0 -40.616,-18.2 -40.616,-40.4533 0,-22.1467 18.448,-40.6267 40.616,-40.6267 22.052,0 40.6187,18.5733 40.6187,40.6267 0,22.16 -18.476,40.4533 -40.6187,40.4533"
           style="opacity:0.25;fill:#000000;fill-opacity:1;fill-rule:nonzero;stroke:none;stroke-width:0.133333" />
        <path
           id="path48-6"
           d="m 6052.8745,3097.8134 h -60.1187 v -245.96 h 97.036 c 27.696,0 51.72,8.7466 70.152,25.9466 17.912,17.2934 27.052,38.52 27.052,62.92 0,24.5867 -9.1493,45.7734 -27.0866,62.6667 -18.8067,17.1467 -43.396,25.92 -71.524,25.92 h -35.5107 v 68.5067 m 2.2253,-186.3067 v 58.1733 l 34.704,0.12 c 17.6667,0 34.848,-12.1733 34.848,-29.08 0,-16.88 -17.288,-29.2133 -34.86,-29.2133 h -34.692"
           style="opacity:0.25;fill:#000000;fill-opacity:1;fill-rule:nonzero;stroke:none;stroke-width:0.133333" />
        <path
           id="path51-5"
           d="m 5851.0972,3035.1067 c 0,-22.1333 18.4493,-40.6133 40.6186,-40.6133 22.0494,0 40.6174,18.56 40.6174,40.6133 0,22.16 -18.476,40.4533 -40.6174,40.4533 -22.256,0 -40.6186,-18.2 -40.6186,-40.4533"
           style="fill:#ffffff;fill-opacity:1;fill-rule:nonzero;stroke:none;stroke-width:0.133333" />
        <path
           id="path52-0"
           d="m 6050.7305,2872.4534 h -34.692 v 58.16 l 34.704,0.12 c 17.6667,0 34.848,-12.16 34.848,-29.0667 0,-16.8933 -17.288,-29.2133 -34.86,-29.2133 z m -97.036,186.2933 v -245.96 h 97.036 c 27.696,0 51.72,8.76 70.152,25.96 17.912,17.28 27.0507,38.5067 27.0507,62.92 0,24.5867 -9.1494,45.76 -27.0854,62.6533 -18.8066,17.1467 -43.396,25.92 -71.5253,25.92 h -35.5093 v 68.5067 h -60.1187"
           style="fill:#ffffff;fill-opacity:1;fill-rule:nonzero;stroke:none;stroke-width:0.133333" />
        <path
           id="path114-9"
           d="m 6245.2894,3098.32 -69.04,-0.1866 73.8,-122.96 -73.8133,-122.8267 h 69.0533 l 44.2134,67.7067 44.36,-67.7067 h 69.0666 l -157.64,245.9733"
           style="opacity:0.25;fill:#000000;fill-opacity:1;fill-rule:nonzero;stroke:none;stroke-width:0.133333" />
        <path
           id="path118-3"
           d="m 6137.1694,2813.28 h 69.0534 l 44.2133,67.72 44.36,-67.72 h 69.08 l -153.6533,245.9734 -73.0267,-0.1867 73.7867,-122.9467 -73.8134,-122.84"
           style="fill:#ffffff;fill-opacity:1;fill-rule:nonzero;stroke:none;stroke-width:0.133333" />
      </g>
      <rect
         style="opacity:0.25;fill:none;fill-opacity:1;fill-rule:evenodd;stroke:none;stroke-width:0.48;stroke-linecap:round;stroke-linejoin:round;stroke-miterlimit:10000"
         id="rect9-1-2-1"
         width="1171.563"
         height="1355.307"
         x="2228.3599"
         y="3678.0664" />
    </g>
  </g>
</svg>
